<?xml version="1.0" encoding="iso-8859-1"?>
<!-- Uploaded to: SVG Repo, www.svgrepo.com, Generator: SVG Repo Mixer Tools -->
<!DOCTYPE svg PUBLIC "-//W3C//DTD SVG 1.1//EN" "http://www.w3.org/Graphics/SVG/1.1/DTD/svg11.dtd">
<svg fill="#000000" version="1.1" id="Capa_1" xmlns="http://www.w3.org/2000/svg" xmlns:xlink="http://www.w3.org/1999/xlink" 
	 width="800px" height="800px" viewBox="0 0 325.303 325.303"
	 xml:space="preserve">
<g>
	<path d="M17.395,71.057v17.729v156.785v26.947v23.172c0,4.477,3.628,8.1,8.1,8.1c4.472,0,8.101-3.623,8.101-8.1v-15.072h258.11
		v15.072c0,4.477,3.629,8.1,8.101,8.1s8.1-3.623,8.1-8.1v-23.172v-26.947V88.786V71.057c10.072-3.407,17.397-12.841,17.397-24.053
		c0-14.056-11.438-25.491-25.497-25.491c-14.054,0-25.492,11.436-25.492,25.491c0,11.212,7.325,20.646,17.392,24.053v17.729h-50.656
		H84.256H33.595V71.057c10.075-3.407,17.399-12.841,17.399-24.053c0-14.056-11.438-25.491-25.5-25.491
		C11.438,21.513,0,32.949,0,47.004C0,58.21,7.317,67.65,17.395,71.057z M290.514,47.004c0-5.123,4.166-9.292,9.292-9.292
		c5.136,0,9.297,4.168,9.297,9.292c0,5.126-4.161,9.295-9.297,9.295C294.68,56.299,290.514,52.13,290.514,47.004z M291.705,264.418
		H33.595v-18.848h50.662h156.782h50.667V264.418z M291.705,104.986v124.385h-50.667V104.986H291.705z M224.849,229.371h-54.1
		V104.986h54.1V229.371z M154.549,104.986v124.385h-54.093V104.986H154.549z M84.256,104.986v124.385H33.595V104.986H84.256z
		 M25.494,37.713c5.124,0,9.3,4.168,9.3,9.292c0,5.126-4.171,9.295-9.3,9.295c-5.131,0-9.294-4.169-9.294-9.295
		C16.2,41.881,20.363,37.713,25.494,37.713z"/>
</g>
</svg>