<?xml version="1.0" encoding="iso-8859-1"?>
<!-- Uploaded to: SVG Repo, www.svgrepo.com, Generator: SVG Repo Mixer Tools -->
<!DOCTYPE svg PUBLIC "-//W3C//DTD SVG 1.1//EN" "http://www.w3.org/Graphics/SVG/1.1/DTD/svg11.dtd">
<svg fill="#000000" height="800px" width="800px" version="1.1" id="Capa_1" xmlns="http://www.w3.org/2000/svg" xmlns:xlink="http://www.w3.org/1999/xlink" 
	 viewBox="0 0 492.592 492.592" xml:space="preserve">
<g>
	<path d="M109.893,442.792c5.029,6.234,7.326,14.043,6.475,22.005c-0.852,7.961-4.756,15.11-10.982,20.132l-6.757,5.451
		c3.115,1.397,6.545,2.213,10.18,2.213c13.794,0,24.969-11.175,24.969-24.968v-63.556l-33.241,27.125L109.893,442.792z"/>
	<path d="M153.508,467.624c0,13.793,11.175,24.968,24.969,24.968c13.795,0,24.97-11.175,24.97-24.968V347.216l-49.939,40.751
		V467.624z"/>
	<path d="M143.643,108.688c30.014,0,54.349-24.325,54.349-54.339C197.992,24.334,173.657,0,143.643,0
		c-30.015,0-54.348,24.334-54.348,54.349C89.295,84.363,113.628,108.688,143.643,108.688z"/>
	<path d="M446.139,408.776c15.681,0,29.51,7.54,38.483,19.04c-0.078-0.776-0.015-1.545-0.129-2.322
		c-5.278-35.872-47.882-59.314-95.144-52.356c-41.203,6.068-78.119,50.869-83.438,86.026h-16.126
		c-8.901,0-17.216-5.142-21.185-13.103c-10.292-20.639-0.104-46.026,29.46-73.413c35.694-33.075,48.87-64.592,36.152-86.476
		c-11.504-19.775-41.306-25.211-80.89-15.478l-37.738-116.027c-5.6-17.192-21.506-28.745-39.59-28.745H111.29
		c-18.076,0-33.983,11.552-39.582,28.753L29.804,283.481c-4.218,12.959,2.868,26.881,15.834,31.099
		c12.942,4.25,26.889-2.868,31.099-15.835l7.102-21.828v93.571l49.938-40.75v-11.343h13.9l54.734-44.663l5.52,16.973L74.725,399.194
		l-12.759,10.39l-19.581-24.275c-2.667-3.31-6.58-5.028-10.525-5.028c-2.972,0.008-5.967,0.979-8.467,2.997l-10.395,8.379
		c-2.789,2.249-4.572,5.518-4.95,9.077c-0.387,3.567,0.667,7.134,2.916,9.923l54.701,67.812c2.251,2.789,5.521,4.572,9.079,4.949
		c0.482,0.057,0.964,0.082,1.446,0.082c3.077,0,6.064-1.053,8.476-2.996l10.389-8.379c5.808-4.685,6.716-13.192,2.032-19
		l-19.624-24.329l12.757-10.39l130.802-106.529c3.876,2.421,8.313,3.927,12.986,3.927c2.53,0,5.109-0.394,7.64-1.221
		c1.084-0.352,2.061-0.865,3.059-1.346c10.049-4.844,15.559-15.839,13.415-26.812c36.577-8.854,56.173-1.781,61.863,8.025
		c8.147,13.995-4.853,39.96-33.107,66.134c-44.829,41.527-42.684,73.397-32.995,92.823c6.829,13.698,20.583,22.213,35.903,22.213
		h16.501c2.336,9.482,11.28,15.928,21.129,14.477l74.82-11.017c-3.157-6.472-5.086-13.642-5.086-21.312
		C397.15,430.756,419.129,408.776,446.139,408.776z"/>
	<circle cx="446.139" cy="457.767" r="32.537"/>
</g>
</svg>