<?xml version="1.0" encoding="utf-8"?>
<!-- Generator: Adobe Illustrator 19.0.0, SVG Export Plug-In . SVG Version: 6.00 Build 0)  -->
<svg version="1.1" id="Layer_1" xmlns="http://www.w3.org/2000/svg" xmlns:xlink="http://www.w3.org/1999/xlink" x="0px" y="0px"
	 viewBox="-177 390.9 240 60" style="enable-background:new -177 390.9 240 60;" xml:space="preserve">
<style type="text/css">
	.st0{fill:#706259;}
	.st1{fill:url(#XMLID_2_);}
	.st2{fill:url(#XMLID_3_);}
	.st3{fill:url(#XMLID_4_);}
	.st4{fill:url(#XMLID_5_);}
</style>
<g id="J">
</g>
<g id="XMLID_2914_">
	<g id="XMLID_2928_">
		<path id="XMLID_2945_" class="st0" d="M-103.1,444.5L-103.1,444.5c0-2.8,2.1-5.2,5.2-5.2c1.9,0,3,0.6,3.9,1.5l-1.4,1.6
			c-0.8-0.7-1.5-1.1-2.5-1.1c-1.7,0-2.9,1.4-2.9,3.1v0c0,1.7,1.2,3.1,2.9,3.1c1.1,0,1.8-0.5,2.6-1.2l1.4,1.4c-1,1.1-2.2,1.8-4.1,1.8
			C-101,449.6-103.1,447.3-103.1,444.5z"/>
		<path id="XMLID_2943_" class="st0" d="M-77.3,448l1.3-1.5c0.9,0.7,1.8,1.2,3,1.2c0.9,0,1.4-0.4,1.4-0.9v0c0-0.6-0.3-0.8-2-1.3
			c-2-0.5-3.3-1.1-3.3-3v0c0-1.8,1.4-3,3.5-3c1.4,0,2.7,0.5,3.7,1.3l-1.1,1.6c-0.9-0.6-1.7-1-2.6-1c-0.8,0-1.3,0.4-1.3,0.9v0
			c0,0.7,0.4,0.9,2.1,1.3c2,0.5,3.1,1.2,3.1,3v0c0,2-1.5,3.1-3.6,3.1C-74.6,449.5-76.1,449-77.3,448z"/>
		<path id="XMLID_2940_" class="st0" d="M-52.4,444.5L-52.4,444.5c0-2.8,2.2-5.2,5.3-5.2c3.1,0,5.3,2.3,5.3,5.1v0
			c0,2.8-2.2,5.1-5.3,5.1C-50.2,449.6-52.4,447.3-52.4,444.5z M-44.1,444.5L-44.1,444.5c0-1.7-1.2-3.1-3-3.1c-1.8,0-3,1.4-3,3.1v0
			c0,1.7,1.2,3.1,3,3.1C-45.4,447.6-44.1,446.2-44.1,444.5z"/>
		<path id="XMLID_2937_" class="st0" d="M-24.3,439.5h4.1c2.4,0,3.8,1.4,3.8,3.4v0c0,2.3-1.8,3.5-4,3.5h-1.7v3h-2.2V439.5z
			 M-20.4,444.5c1.1,0,1.7-0.7,1.7-1.5v0c0-1-0.7-1.5-1.8-1.5h-1.7v3H-20.4z"/>
		<path id="XMLID_2934_" class="st0" d="M0.3,444.5L0.3,444.5c0-2.8,2.2-5.2,5.3-5.2c3.1,0,5.3,2.3,5.3,5.1v0c0,2.8-2.2,5.1-5.3,5.1
			C2.5,449.6,0.3,447.3,0.3,444.5z M8.6,444.5L8.6,444.5c0-1.7-1.2-3.1-3-3.1s-3,1.4-3,3.1v0c0,1.7,1.2,3.1,3,3.1
			S8.6,446.2,8.6,444.5z"/>
		<path id="XMLID_2931_" class="st0" d="M28.4,439.5h4.5c1.3,0,2.2,0.4,2.9,1c0.6,0.6,0.8,1.3,0.8,2.3v0c0,1.6-0.9,2.6-2.1,3.1
			l2.4,3.5h-2.5l-2.1-3.2h-1.7v3.2h-2.2V439.5z M32.8,444.3c1.1,0,1.7-0.6,1.7-1.4v0c0-0.9-0.7-1.4-1.7-1.4h-2.2v2.8H32.8z"/>
		<path id="XMLID_2929_" class="st0" d="M56.6,441.5h-3v-2h8.2v2h-3v7.9h-2.2V441.5z"/>
	</g>
	<g id="XMLID_2045_">
		<path id="XMLID_2051_" class="st0" d="M-56.9,398.1h5.8l14.6,30.9h-5.7l-4.2-9.1h-15.4l-4.1,9.1h-5.5L-56.9,398.1z M-48.3,416.1
			l-5.8-12.7l-5.7,12.7H-48.3z"/>
		<polygon id="XMLID_2050_" class="st0" points="-79.1,398.1 -74,398.1 -74,429 -79.4,429 -98.8,405.2 -98.8,429 -103.9,429 
			-103.9,398.1 -98.5,398.1 -79.1,421.7 		"/>
		<rect id="XMLID_2049_" x="-3" y="398.1" class="st0" width="5.4" height="30.9"/>
		<path id="XMLID_2048_" class="st0" d="M33.7,403.7c-3.4-1.2-7.1-1.7-10.9-1.7c-5.9,0-8.9,1.7-8.9,5.1c0,2.8,1.7,4.2,5.2,4.2h5.1
			c7.3,0,11,2.8,11,8.5c0,6.3-4.6,9.4-13.7,9.4c-4.2,0-8.1-0.5-11.6-1.4v-4.4c3.5,1.2,7.3,1.7,11.6,1.7c5.5,0,8.3-1.8,8.3-5.3
			c0-2.8-1.9-4.2-5.6-4.2H19c-7,0-10.6-2.8-10.6-8.5c0-6.1,4.8-9.2,14.3-9.2c3.9,0,7.5,0.5,10.9,1.4V403.7z"/>
		<polygon id="XMLID_2047_" class="st0" points="38.9,402.2 38.9,398.1 63,398.1 63,402.2 44.7,424.9 62.7,424.9 62.7,429 38.5,429 
			38.5,424.9 57.5,402.2 		"/>
		<path id="XMLID_2046_" class="st0" d="M-32.7,401.7c-3,2.5-4.5,6.4-4.5,11.4c0,5.4,1.5,9.4,4.6,12.1c1.6,1.4,3.5,2.4,5.9,3.1
			c2.1,0.6,4.5,0.9,7.3,0.9c0.3,0,0.7,0,1,0c3.4,0,6.4-0.6,9.1-1.5v-10.6v-3.2h-10.7l1.2,3.2h4.1v7.5c-1.5,0.3-2.9,0.5-4.1,0.5
			c-0.2,0-0.4,0-0.6,0c-4.4-0.1-7.6-1.2-9.7-3.5c-1.6-1.8-2.5-4.2-2.6-7.3c0-0.7,0-1.4,0-2.2c0.2-3.7,1.7-6.4,4.4-8
			c1.8-1.1,4.1-1.8,6.9-2c1.1-0.1,2.2-0.1,3.3,0c2.3,0.1,4.5,0.5,6.6,1.2c0.3,0.1,0.7,0.2,1,0.3v-4.4c-2.9-0.9-6.2-1.4-9.8-1.4
			C-25.2,397.9-29.7,399.2-32.7,401.7z"/>
	</g>
	<g id="XMLID_1237_">
		<radialGradient id="XMLID_2_" cx="-155.3215" cy="412.5456" r="42.5736" gradientUnits="userSpaceOnUse">
			<stop  offset="0" style="stop-color:#C8D100"/>
			<stop  offset="0.5538" style="stop-color:#65A027"/>
			<stop  offset="0.7312" style="stop-color:#45962C"/>
			<stop  offset="0.8065" style="stop-color:#549B2A"/>
			<stop  offset="1" style="stop-color:#96BD0D"/>
		</radialGradient>
		<path id="XMLID_1301_" class="st1" d="M-165.3,411.7c-1.3-3.8-4.3-8-5.4-9.4c-3.4,4.4-5.6,9.8-6.2,15.8c-0.8,8.9,2.4,17.1,8,23.2
			c0.5-0.7,1.2-1.9,2-3.9C-164.6,431.5-163.6,416.8-165.3,411.7z"/>
		<g id="XMLID_1295_">
			<radialGradient id="XMLID_3_" cx="-155.3215" cy="412.5456" r="42.5736" gradientUnits="userSpaceOnUse">
				<stop  offset="0" style="stop-color:#C8D100"/>
				<stop  offset="0.5538" style="stop-color:#65A027"/>
				<stop  offset="0.7312" style="stop-color:#45962C"/>
				<stop  offset="0.8065" style="stop-color:#549B2A"/>
				<stop  offset="1" style="stop-color:#96BD0D"/>
			</radialGradient>
			<path id="XMLID_1300_" class="st2" d="M-150,448.7c-0.8-2.2-1.3-5.6-0.7-9.4c0.1-0.3,0.1-0.6,0.1-0.7c0-0.1,0.2-0.3,0.5-0.3
				c0.3,0,0.5,0.1,0.6,0.3c0.2,0.3,0.5,0.6,0.7,1c0.9,1.3,3.3,3.9,5.7,5.7c2.6,1.9,5.5,4,9.2,2.9c1.6-0.8,3.2-1.7,4.6-2.7
				c-2.6-3.8-7.2-8.8-12-13.5c-12.7-12.4-17.9-16.4-17.9-16.4s0.3,2.1-0.8,14.5c-0.8,8.9-0.9,13.6,1,17.1c0.3,0.6,0.8,1.3,1.4,1.9
				c2.8,1.1,5.8,1.7,8.9,1.9c0,0,0,0,0.1,0C-149.2,450.3-149.7,449.5-150,448.7z"/>
		</g>
		<g id="XMLID_1291_">
			<radialGradient id="XMLID_4_" cx="-155.3215" cy="412.5456" r="42.5736" gradientUnits="userSpaceOnUse">
				<stop  offset="0" style="stop-color:#C8D100"/>
				<stop  offset="0.5538" style="stop-color:#65A027"/>
				<stop  offset="0.7312" style="stop-color:#45962C"/>
				<stop  offset="0.8065" style="stop-color:#549B2A"/>
				<stop  offset="1" style="stop-color:#96BD0D"/>
			</radialGradient>
			<path id="XMLID_1294_" class="st3" d="M-142.4,390.9c0.4,0.6,0.8,1.3,1.1,2.1c0.8,2.2,1.3,5.8,0.6,9.5c-0.1,0.3-0.1,0.6-0.2,0.7
				c0,0.1-0.2,0.3-0.5,0.3c-0.3,0-0.5-0.1-0.6-0.3c-0.2-0.3-0.4-0.7-0.7-1c-0.9-1.4-3.2-4.2-5.7-6.2c-1.5-1.2-3.7-2.2-5.9-2.8
				c-1.3-0.3-3.7-0.6-5.9,0.5c-1,0.5-1.9,1-2.8,1.6c2.6,3.6,7.2,8.3,12,12.8c9.1,8.5,12.2,10.5,14.2,11.6c0.8,0.4,1.2,0.6,1.2,0.6
				s0.1-0.1,0.2-0.6c0.7-1.6,2.8-7.4,3.6-16.5c0.3-3.5,0.7-6.3-0.3-8.7C-135.1,392.6-138.6,391.4-142.4,390.9z"/>
		</g>
		<radialGradient id="XMLID_5_" cx="-155.3215" cy="412.5456" r="42.5736" gradientUnits="userSpaceOnUse">
			<stop  offset="0" style="stop-color:#C8D100"/>
			<stop  offset="0.5538" style="stop-color:#65A027"/>
			<stop  offset="0.7312" style="stop-color:#45962C"/>
			<stop  offset="0.8065" style="stop-color:#549B2A"/>
			<stop  offset="1" style="stop-color:#96BD0D"/>
		</radialGradient>
		<path id="XMLID_1290_" class="st4" d="M-125.4,442.1c4.9-4.8,8.1-11.4,8.7-18.7c0.8-9-2.5-17.4-8.2-23.5c-0.4,0.8-3.7,8-3.8,21.7
			C-128.8,435-125.8,440.9-125.4,442.1z"/>
	</g>
</g>
</svg>
